<?xml version="1.0" encoding="UTF-8" standalone="no"?>
<svg xmlns:dc="http://purl.org/dc/elements/1.1/" xmlns:cc="http://creativecommons.org/ns#" xmlns:rdf="http://www.w3.org/1999/02/22-rdf-syntax-ns#" xmlns:svg="http://www.w3.org/2000/svg" xmlns="http://www.w3.org/2000/svg" xmlns:sodipodi="http://sodipodi.sourceforge.net/DTD/sodipodi-0.dtd" xmlns:inkscape="http://www.inkscape.org/namespaces/inkscape" version="1.1" width="219" height="205.5" id="svg4257" inkscape:version="0.91pre3 r13670" viewBox="0 0 219 205.5" sodipodi:docname="logo-opuspac.svg">
  <metadata id="metadata4302">
    <rdf:RDF>
      <cc:Work rdf:about="">
        <dc:format>image/svg+xml</dc:format>
        <dc:type rdf:resource="http://purl.org/dc/dcmitype/StillImage"/>
        <dc:title/>
      </cc:Work>
    </rdf:RDF>
  </metadata>
  <sodipodi:namedview pagecolor="#ffffff" bordercolor="#666666" borderopacity="1" objecttolerance="10" gridtolerance="10" guidetolerance="10" inkscape:pageopacity="0" inkscape:pageshadow="2" inkscape:window-width="1366" inkscape:window-height="706" id="namedview4300" showgrid="false" inkscape:zoom="1.5858201" inkscape:cx="219.67555" inkscape:cy="112.19705" inkscape:window-x="-8" inkscape:window-y="-8" inkscape:window-maximized="1" inkscape:current-layer="svg4257"/>
  <path d="m 18.2738,-2.6613984 182.0826,0 c 10.0511,0 18.2736,8.2234 18.2736,18.2736004 l 0,171.613998 c 0,10.0505 -8.2225,18.2738 -18.2736,18.2738 l -182.0826,0 C 8.2236,205.5 0,197.2767 0,187.2262 L 0,15.612202 C 0,5.5620016 8.2236,-2.6613984 18.2738,-2.6613984 Z" style="fill:#fefefe;fill-rule:evenodd" id="path4259" inkscape:connector-curvature="0"/>
  <path d="m 212.8347,129.6719 0,58.5073 c 0,6.3388 -5.1866,11.5254 -11.5254,11.5254 l -183.9891,0 c -6.3387,0 -11.5254,-5.1859 -11.5254,-11.5254 l 0,-58.5073 207.0399,0 z" style="fill:#006097;fill-rule:evenodd" id="path4261" inkscape:connector-curvature="0"/>
  <defs id="defs4263">
    <radialGradient id="grad1" cx="401.8992" cy="278.46198" r="153.08501" gradientTransform="matrix(1.3254016,0,0,0.7544883,-422.3279,-147.444)" fx="401.8992" fy="278.46198" gradientUnits="userSpaceOnUse">
 &gt;
    <stop offset="0%" stop-color="#fefefe" stop-opacity="1" id="stop4266"/>
<stop offset="100%" stop-color="#bdbec1" stop-opacity="1" id="stop4268"/>
</radialGradient>
  </defs>
  <path d="m 17.3202,3.1340016 183.9891,0 c 6.3395,0 11.5254,5.1859004 11.5254,11.5253004 l 0,106.332698 -207.0399,0 0,-106.332698 c 0,-6.3394 5.1859,-11.5253004 11.5254,-11.5253004 z" style="fill:url(#grad1)" id="path4270" inkscape:connector-curvature="0"/>
  <path d="m 47.6267,61.253602 c 23.3301,-3.9742 24.1947,26.1644 3.5005,31.6578 l -5.5334,0.7294 0,-0.008 c -8.5231,-0.0618 -14.8099,-6.3544 -14.0288,-14.988 0.696,-7.6875 6.5425,-15.7638 16.0617,-17.3913 z m -3.4177,30.026 c 11.70173,2.67106 18.53813,-9.8267 16.75426,-19.06687 -0.83003,-4.29942 -3.52636,-7.89358 -8.46726,-8.92623 -3.0856,-0.6452 -6.4161,-0.1344 -9.1072,1.557 l 0,0.009 c -4.9565,2.9723 -7.0904,9.0964 -7.0904,14.6813 l 0.008,0 c 0,4.4022 1.4175,8.8334 5.5414,10.9185 l 0,0.008 c 0.6967,0.3524 1.5003,0.6394 2.3612,0.8196 z" style="fill:#4c4b4d;fill-rule:evenodd" id="path4272" inkscape:connector-curvature="0" sodipodi:nodetypes="ccccccccsccccccccc"/>
  <path d="m 76.1923,73.376802 c 6.9821,-2.2741 14.4568,2.354 11.2469,11.6487 -1.3143,3.8063 -4.4043,6.6791 -8.2303,7.8859 -3.2244,1.0172 -5.7404,0.9525 -8.7876,-0.0327 L 68.626,105.158 l -3.8281,-0.0414 4.1725,-29.001498 -0.008,0 0,-0.6481 0.008,0 c -0.1707,-2.1491 -0.8239,-2.2711 4.0004,-2.3278 l 0.3524,0.0901 -0.2456,1.6972 c 0.4831,-0.3037 0.975,-0.6067 1.4756,-0.861 l 0,-0.008 c 0.5246,-0.2622 1.0818,-0.4998 1.6391,-0.6807 z m -7.7544,31.396198 0,0 z m 3.8688,-11.361698 0,0 z m 1.1807,-1.9101 c 0.5492,0.1722 1.2293,0.2623 2.0161,0.2623 l 0,0.008 c 9.3587,0 11.9822,-16.5666 2.2545,-16.5666 l 0,-0.008 c -6.0579,0.4243 -5.322,3.7344 -6.1066,9.6645 -0.3626,2.7412 -1.2729,5.7106 1.836,6.6399 z m -0.8363,-13.4927 0,0.008 z m -0.2296,-0.6067 0,0.0247 0.008,-0.0247 -0.008,0 z m 0.6147,-0.1722 -0.016,0.0247 z" style="fill:#4c4b4d;fill-rule:evenodd" id="path4274" inkscape:connector-curvature="0"/>
  <path d="m 102.1866,90.927202 0.0247,-0.1962 -0.664,0.5653 c -0.303,0.2463 -0.6641,0.4998 -1.0412,0.7374 -0.377,0.2383 -0.786801,0.4679 -1.188601,0.6401 -0.4018,0.1802 -0.8522,0.3604 -1.303399,0.5079 -0.4505,0.1395 -0.9424,0.2623 -1.4262,0.3364 -0.4672,0.0653 -0.9918,0.106 -1.5083,0.1148 l 0,0.008 c -0.6641,0 -1.2621,-0.0741 -1.7866,-0.1968 -0.5253,-0.1228 -0.9925,-0.3197 -1.3775,-0.582 -0.3691,-0.2456 -0.6968,-0.5987 -0.9511,-0.9917 -0.2456,-0.4018 -0.4425,-0.869 -0.5493,-1.3856 -0.098,-0.4918 -0.1554,-1.0905 -0.1475,-1.7379 l -0.008,0 c 0,-0.6066 0.0653,-1.3114 0.1801,-2.0822 l 0.6394,-4.4676 0.4265,-3.2295 0.2456,-2.2297 0.0414,-0.6394 -0.008,-0.6147 -0.0494,-0.6313 -0.0981,-0.6474 0,-0.0247 0,-0.0407 0.024,-0.1722 0.009,-0.0247 0.008,-0.0326 0.0901,-0.1969 0.0167,-0.0168 0.016,-0.0326 0.1474,-0.1722 0.0327,-0.0327 0.0415,-0.0247 0.1721,-0.0814 0.0327,-0.009 0.0407,-0.008 1.7953,-0.1555 0.008,0 1.812,-0.0414 0.0654,0 0.1555,0.0414 0.1482,0.0407 0.008,0.1475 0.016,0.1555 0.009,0.0494 -0.009,0.0167 -0.3524,1.926 -0.4258,2.5495 -0.4431,2.7543 -0.3931,2.5081 -0.287,1.8367 -0.1068,0.7047 c -0.1061,0.7295 -0.1802,1.3935 -0.1882,1.9348 -0.0167,0.5326 0.008,1.0324 0.0654,1.4342 0.0574,0.3851 0.1722,0.7215 0.303,0.9758 0.1395,0.2542 0.3197,0.4751 0.5166,0.6226 0.2049,0.1475 0.4671,0.2623 0.7541,0.3364 0.3037,0.0734 0.6481,0.1148 0.9758,0.1148 l 0.008,-0.009 c 0.4344,0 0.8442,-0.0327 1.2293,-0.1061 0.3771,-0.0741 0.770799,-0.1969 1.155899,-0.3444 0.3938,-0.1555 0.7789,-0.3604 1.123201,-0.5819 0.3524,-0.2376 0.7375,-0.5413 1.1066,-0.877 l 0.4185,-0.4432 0.3523,-0.5078 0.303,-0.59 0.2376,-0.6728 0.2136,-0.8769 0.1722,-1.0085 0.4831,-3.4016 0.3858,-2.9099 0.2376,-2.2217 0.0407,-0.6394 -0.008,-0.6147 -0.0407,-0.6393 -0.1068,-0.6394 0,-0.0247 0,-0.0407 0.0247,-0.1809 0.008,-0.0239 0.0167,-0.0415 0.0981,-0.1881 0.0167,-0.0247 0.008,-0.0167 0.1395,-0.1722 0.0327,-0.0327 0.0407,-0.0247 0.1802,-0.0814 0.0327,-0.009 0.0414,-0.008 1.7953,-0.1555 0.008,0 1.8112,-0.0414 0.0415,0 0.0247,0.008 0.1475,0.0414 0.1394,0.0407 0.016,0.1315 0.0247,0.1555 0.008,0.0414 -0.008,0.0327 -0.3276,1.7291 -0.3524,2.0743 -0.3531,2.131 -0.303,1.8854 -0.2049,1.3528 0,0.008 -0.0901,0.5166 -0.3443,2.4266 -0.3444,2.5575 -0.287,2.4019 -0.2049,2.0082 0,0.0407 -0.016,0.0247 -0.0661,0.1475 -0.0407,0.0988 -0.1068,0.024 -0.1635,0.0414 -0.0334,0.008 -0.016,0 -3.1314,0 -0.0167,0 -0.0487,-0.016 -0.1235,-0.0414 -0.0407,-0.008 -0.0247,-0.0247 c -0.098,-0.0741 -0.1475,-0.2049 -0.1307,-0.3444 l 0,-0.016 0.1634,-0.8529 0.1395,-0.8363 z" style="fill:#4c4b4d;fill-rule:evenodd" id="path4276" inkscape:connector-curvature="0"/>
  <path d="m 96.2312,73.349402 0,0 z" style="fill:#404041;fill-rule:evenodd" id="path4278" inkscape:connector-curvature="0"/>
  <path d="m 117.0844,93.526102 c -0.5492,0.0733 -1.0905,0.1147 -1.6151,0.1147 l -2.2217,-0.1642 -1.9835,-0.4504 0.0247,0.016 c -0.5965,-0.2921 -2.8793,-0.6677 -1.1727,-3.3523 0.6191,-0.9729 1.6304,0.8036 1.7379,0.9016 l 0,-0.009 c 1.6871,1.4945 5.7485,1.8636 7.6891,-0.4345 l -0.008,0 c 1.1072,-1.3804 1.6877,-3.7562 -0.8196,-4.9753 l 0,-0.008 c -2.091,-0.8828 -4.6956,-1.6522 -5.6234,-3.9023 l -0.008,0 c -1.4052,-3.6792 1.7146,-8.3408 7.5662,-8.4105 l 0,-0.008 c 1.3616,0 5.1956,0.6096 4.91,2.1317 -0.1547,0.8246 -0.3771,2.6032 -1.5657,1.9261 -0.3451,-1.5316 -2.1731,-2.1724 -3.7054,-2.1724 l 0,-0.008 c -4.1972,0 -5.5341,5.832 0.7382,7.2952 0.7229,0.1686 2.6969,1.5389 3.1307,2.8118 l -0.008,0 c 1.6645,4.2045 -3.2796,8.2019 -7.0657,8.6975 z" style="fill:#4c4b4d;fill-rule:evenodd" id="path4280" inkscape:connector-curvature="0"/>
  <path d="m 110.1639,90.569202 0,0.008" style="fill:#4c4b4d;fill-rule:evenodd" id="path4282" inkscape:connector-curvature="0"/>
  <path d="m 109.5623,91.643802 0,0 z" style="fill:#404041;fill-rule:evenodd" id="path4284" inkscape:connector-curvature="0"/>
  <path d="m 110.5807,92.093202 0.009,0" style="fill:#4c4b4d;fill-rule:evenodd" id="path4286" inkscape:connector-curvature="0"/>
  <path d="m 110.5728,92.085402 0.008,0.008" style="fill:#4c4b4d;fill-rule:evenodd" id="path4288" inkscape:connector-curvature="0"/>
  <path d="m 135.8569,73.376802 c 1.0739,-0.3524 2.1971,-0.5326 3.3363,-0.5326 0.7462,0 1.4756,0.0741 2.1557,0.1889 0.664,0.1141 1.3034,0.303 1.8774,0.5406 0.5819,0.2375 1.1145,0.5412 1.5657,0.8529 0.4751,0.3277 0.9016,0.7295 1.2707,1.164 0.3684,0.4344 0.7048,0.9263 0.9423,1.4094 0.2463,0.5006 0.4512,1.0659 0.59,1.6399 0.1395,0.5492 0.2296,1.1886 0.2463,1.8359 0.0247,0.6234 -0.0247,1.3115 -0.1228,1.9835 -0.1315,0.9024 -0.3444,1.7793 -0.6234,2.5662 -0.2702,0.8115 -0.6226,1.5577 -1.0324,2.2457 -0.4018,0.6808 -0.8857,1.3361 -1.3935,1.9181 -0.5166,0.582 -1.0985,1.1232 -1.7052,1.5904 -0.5987,0.4592 -1.2707,0.8857 -1.9595,1.238 -0.6801,0.3604 -1.4095,0.6721 -2.131,0.8937 -1.4923,0.4831 -3.058,0.7294 -4.6564,0.7294 l -0.016,-0.008 -1.1152,-0.0662 -0.016,0 -1.0826,-0.1554 -0.0159,0 -1.0085,-0.2463 -0.016,-0.008 -0.8609,-0.2783 -0.4839,3.368998 -0.4672,3.385 -0.3691,2.9679 -0.2375,2.2211 c -0.008,0.1395 -0.0901,0.2542 -0.1802,0.3116 l -0.0167,0.008 -0.0487,0.0167 -0.1395,0.0407 -0.0574,0.0167 -3.2789,0 0,0 -0.0574,-0.0167 -0.1475,-0.0407 -0.1475,-0.0414 -0.008,-0.1387 -0.0167,-0.1562 -0.008,-0.0487 0.008,-0.0167 0.3604,-1.9508 0.4759,-2.8197 0.5245,-3.3203 0.5166,-3.409698 0.4672,-3.1314 0.2703,-1.8367 0.3523,-2.4674 0.3858,-2.7543 0.3604,-2.6723 0.295,-2.221 0.1642,-1.4349 0.0327,-0.6227 -0.008,0 0,-0.6481 0.008,0 -0.0494,-0.6306 -0.1061,-0.6314 -0.009,-0.0247 0.009,-0.0407 0.024,-0.1722 0,-0.0414 0.0167,-0.0247 0.098,-0.1961 0,0 0.0327,-0.0414 0.1483,-0.1722 0.0239,-0.0327 0.0494,-0.0247 0.1722,-0.0814 0.0247,-0.009 0.0494,-0.008 1.7459,-0.1555 0.008,0 1.7626,-0.0414 0.0327,0 0.0327,0.008 0.1475,0.0414 0.1315,0.0407 0.0247,0.1315 0.024,0.1555 0,0.0494 0,0.0327 -0.1882,0.8035 -0.0988,0.5246 c 0.4839,-0.3037 0.9757,-0.6067 1.4756,-0.861 l 0,-0.008 c 0.5246,-0.2622 1.0906,-0.4998 1.6398,-0.6807 z m -6.8448,1.3935 -0.008,-0.008 0,0.008 0.008,0 z m -0.9263,30.445098 0,0 z m 0.0167,-0.4424 0,0 z m 3.8689,-11.361698 -0.0247,0 0.0247,0 z m 1.1806,-1.9021 c 0.5405,0.1642 1.2293,0.2543 2.0162,0.2543 l 0,0.008 c 0.6967,0 1.4015,-0.098 2.0575,-0.2622 l 0.008,0 c 0.6234,-0.1555 1.2461,-0.4098 1.7953,-0.7295 0.5493,-0.303 1.0818,-0.7127 1.541,-1.1639 0.4839,-0.4752 0.9184,-1.0165 1.2707,-1.5817 l -0.008,0 c 0.7294,-1.1806 1.2293,-2.5989 1.4756,-4.1973 0.1307,-0.9343 0.1802,-1.82 0.1555,-2.5901 -0.0248,-0.7629 -0.1475,-1.4923 -0.3444,-2.1397 l 0,-0.008 c -0.1802,-0.6233 -0.4592,-1.1886 -0.8036,-1.6805 -0.3277,-0.4758 -0.7541,-0.8936 -1.2213,-1.2133 -0.4832,-0.3277 -1.0491,-0.5987 -1.6391,-0.7541 -0.582,-0.1555 -1.2707,-0.2463 -2.0329,-0.2463 l 0,-0.008 -0.8195,0.0574 -0.869,0.1722 -0.8035,0.2542 -0.7869,0.3604 -0.656,0.4185 -0.5493,0.4999 -0.2543,0.2869 -0.2049,0.3444 c -0.1228,0.2296 -0.2209,0.5326 -0.2703,0.885 l -0.4591,3.1968 -0.4345,3.1888 -0.3684,2.8691 c -0.0741,0.6641 -0.0494,1.2707 0.0814,1.7626 0.1315,0.4752 0.3938,0.9016 0.7462,1.246 0.3443,0.3357 0.8195,0.598 1.3775,0.7702 z m -0.4512,-14.2796 -0.0167,0.0167 0,0.008 z m 3.8202,-2.4019 -0.0167,0.009 0.0167,0 0,-0.009 z" style="fill:#4c4b4d;fill-rule:evenodd" id="path4290" inkscape:connector-curvature="0"/>
  <path d="m 165.2944,90.878502 c 1.6354,-1.076 2.468,0.348 -0.9838,2.139 l 0,0.009 c -1.2264,0.6255 -3.3799,1.0658 -4.4842,0.0901 l 0,-0.009 -0.7215,-1.6718 c -6.7554,5.468698 -12.5365,0.1671 -10.7093,-4.692 0.7186,-1.9138 2.7493,-3.0312 4.5853,-3.6524 l 7.4689,-2.5255 0.5245,-3.1394 0.008,-0.008 c 0,-4.4559 -6.1153,-2.8161 -7.6069,-0.0247 l -0.7135,0.2783 -0.4831,-0.8769 -0.0247,-0.7622 c 0.1845,-0.1845 -0.7142,-1.294 2.492,-2.3939 l 1.0738,-0.3524 0,-0.008 c 2.0794,-0.4686 4.4465,-0.6859 6.4917,-0.0247 5.7921,1.8723 -0.2281,12.3084 0.9017,17.2307 0.2761,1.2017 1.2482,0.8363 2.1811,0.3938 z m -2.1811,-0.4018 0,0.008 z m -7.3934,-17.19 0.024,-0.008 -0.024,0 0,0.008 z m -3.0333,3.9509 0,0 z m 5.7543,12.772 c 1.3048,-1.3558 1.3484,-4.6463 1.7219,-7.2139 -3.2884,0.3894 -5.3481,0.9874 -6.443,2.0925 -2.418,2.4441 -0.8653,9.4509 4.7211,5.1214 z m -0.5653,0.4344 0.0247,-0.0167 z m 29.1984,-13.829 0.0167,0.008" style="fill:#4c4b4d;fill-rule:evenodd" id="path4292" inkscape:connector-curvature="0"/>
  <path d="m 182.6704,74.869102 c -0.4512,-0.0901 -1.0004,-0.1395 -1.6071,-0.1395 -0.6641,0 -1.3114,0.0821 -1.8934,0.2376 l -0.008,0 c -6.3413,0.7694 -9.7894,16.3211 0,16.3211 l 0,-0.009 c 0.4999,0 1.0078,-0.0574 1.4756,-0.1475 0.4752,-0.0814 0.9918,-0.2376 1.4837,-0.4178 0.5158,-0.1889 1.0077,-0.4177 1.4421,-0.6393 0.4345,-0.2216 0.9017,-0.5166 1.3449,-0.8196 l 0.0247,-0.0167 0.0574,-0.016 0.1962,-0.0414 0.0494,-0.008 0.0653,0.016 0.1642,0.0574 0.0247,0.0167 0.0407,0.0247 0.1395,0.1228 0.0327,0.0327 0.0167,0.0247 0.0901,0.1642 0.0327,0.0654 0,0.0407 0,0.1889 0,0.0494 -0.0247,0.0487 -0.0901,0.1801 -0.0167,0.0247 -0.0327,0.0327 c -0.4504,0.4265 -1.0077,0.853 -1.6311,1.2548 -0.6226,0.4018 -1.3034,0.7868 -1.9922,1.0985 l -0.008,0 -1.0324,0.4258 -0.0167,0.009 -1.0411,0.3357 -0.0327,0.0167 0.008,-0.009 -1.0085,0.2049 0.0167,0 -0.0167,0 -0.0239,0 -0.9591,0.0909 c -0.0196,-0.0197 -8.2492,0.2085 -9.1254,-6.9393 -0.4069,-3.3348 1.7473,-9.0019 4.623,-11.2593 1.5875,-1.2482 3.4969,-2.1011 5.4774,-2.4426 0.7048,-0.1213 1.4836,-0.1882 2.2625,-0.1969 l 0.008,0 1.0004,0.0414 0.016,0.008 0,-0.008 1.0085,0.1308 0.0167,0 0.967,0.1969 0.0167,0.008 0.9177,0.2623 0.0167,0 c 0.5899,0.2048 1.0985,0.4671 1.4836,0.7461 l 0.008,0.008 c 0.0988,0.0901 0.1809,0.2296 0.1969,0.3771 l 0.008,0.0327 0,0.0247 0,0.2543 0,0.0167 -0.008,0.0327 -0.1969,0.9016 -0.008,0.008 0,0.0167 -0.3117,0.8276 -0.016,0.0327 -0.0167,0.0247 -0.0654,0.0821 -0.0327,0.0406 -0.0327,0.0168 -0.1148,0.0653 -0.0414,0.0248 -0.0407,0 -0.287,0.0326 -0.0494,0.009 -0.016,-0.009 -0.1148,-0.0247 -0.0574,-0.008 -0.0326,-0.0327 -0.0742,-0.0574 -0.0573,-0.0327 -0.016,-0.0741 c -0.1068,-0.3197 -0.287,-0.6307 -0.5086,-0.877 l 0,-0.008 c -0.2129,-0.2543 -0.5079,-0.4839 -0.8443,-0.664 -0.3364,-0.1802 -0.7708,-0.3197 -1.2293,-0.4098 z" style="fill:#4c4b4d;fill-rule:evenodd" id="path4294" inkscape:connector-curvature="0"/>
  <path d="m 185.6997,37.488202 0,-3.2628 -76.3878,-5.4172 -76.3819,5.455 0,3.225 152.7697,0 z" style="fill:#4c4b4d;fill-rule:evenodd" id="path4296" inkscape:connector-curvature="0"/>
  <path d="m 188.2898,173.2437 -2.3092,0 c 0.4928,-2.6342 2.4713,-8.1017 -0.7567,-6.6132 -0.2582,0.1188 -0.505,0.2965 -0.7396,0.5298 l -1.1322,6.0834 -2.4899,0 c 0.5178,-2.7167 1.7332,-5.8942 0.9665,-8.581 l 2.4465,-0.4495 0.1422,0.7489 c 2.6235,-1.7723 5.6909,-0.3279 5.0721,3.0346 l -0.9757,5.247 -0.224,0 z m -13.863,-3.4542 c 0,2.0162 2.1356,1.7638 2.9343,0.505 l 7e-4,7e-4 c 2.8084,-4.4605 -2.935,-5.5273 -2.935,-0.5057 z m -2.5461,0.0925 c 0,-7.5264 10.9351,-7.3337 8.3329,0.0555 l -7e-4,0 c -1.4444,4.1113 -8.3322,5.1297 -8.3322,-0.0555 z m -2.7792,3.3617 -2.2865,0 1.2552,-6.7078 -1.0724,0 0.4366,-2.0887 3.5396,0 -1.6485,8.7965 -0.224,0 z m -0.8392,-11.1776 c 0,-2.8198 4.6603,-0.8861 2.5972,1.049 l -1.6485,0.3165 -0.8342,-0.7866 c -0.0754,-0.1756 -0.1145,-0.3691 -0.1145,-0.5789 z m -3.056,4.4698 -2.0752,0 c -0.5568,2.5041 -2.3298,5.7463 1.4778,4.164 l 0,2.339 c -6.5407,2.2651 -4.6084,-3.5637 -3.9491,-6.503 l -0.9473,0 0.4473,-2.0887 0.9423,0 0.3072,-1.6194 2.8007,-1.0276 -0.6152,2.647 2.2772,0 -0.4473,2.0887 -0.2184,0 z m -10.8526,-0.1266 c -3.0445,0 -3.3326,6.3764 -0.9053,4.6661 0.2126,-0.1494 0.4132,-0.3798 0.5981,-0.6849 l 1.0326,-3.8951 -0.7254,-0.0861 z m 2.4813,3.6519 0.3421,3.1825 c -0.8605,0 -2.0404,0.2781 -2.5133,-0.635 -2.1513,1.7352 -5.4213,0.5533 -5.4213,-2.3405 0,-4.755 4.3588,-7.2555 8.5953,-5.4868 l -1.0028,5.2798 z m -8.404,-2.45 -1.0546,5.6325 -2.5098,0 c 0.0349,-0.1863 2.7231,-9.3498 -0.8947,-6.3074 l -1.3469,6.3074 -2.5318,0 1.1741,-6.2768 -1.2595,-0.4722 c -0.1173,0.0391 -0.2482,0.0995 -0.3904,0.1827 l -7e-4,-0.001 c -1.1976,0.6977 -1.4814,5.1091 -1.7581,6.5677 l -2.5239,0 c 0.5042,-2.6427 1.7424,-5.8814 0.9323,-8.5825 l 2.4365,-0.4274 0.1515,0.6017 c 1.2524,-0.7546 3.4898,-0.7631 4.4804,0.2318 2.0134,-1.5646 6.1539,-0.6301 5.0956,2.5439 z m -19.5453,2.1783 c 0,2.0162 2.1357,1.7638 2.9343,0.505 l 7e-4,7e-4 c 2.8085,-4.4605 -2.935,-5.5273 -2.935,-0.5057 z m -2.546,0.0925 c 0,-7.5264 10.9351,-7.3337 8.3329,0.0555 l -7e-4,0 c -1.4445,4.1113 -8.3322,5.1297 -8.3322,-0.0555 z m -1.1144,-3.3461 -2.0753,0 c -0.5568,2.5041 -2.3298,5.7463 1.4779,4.164 l 0,2.339 c -6.5407,2.2651 -4.6085,-3.5637 -3.9492,-6.503 l -0.9473,0 0.4473,-2.0887 0.9423,0 0.3073,-1.6194 2.8006,-1.0276 -0.6152,2.647 2.2772,0 -0.4473,2.0887 -0.2183,0 z m -8.5299,6.7078 -2.2573,0 0.0626,-0.32 c -1.4707,0.7425 -3.9314,0.8079 -4.5885,-1.0404 l 0.001,-8e-4 c -0.6067,-1.6961 0.6592,-5.8608 0.9508,-7.4353 l 2.4906,0 c -0.5725,3.1363 -2.3462,7.7838 0.5284,6.6722 1.8348,-0.709 1.9116,-5.1169 2.1876,-6.6722 l 2.4777,0 -1.6286,8.7965 -0.2247,0 z m -11.5254,-7.4531 -1.7189,3.1228 2.1918,0 -0.4729,-3.1228 z m 1.1002,7.2234 -0.3193,-2.0588 -3.659,0 -1.3292,2.2885 -2.7167,0 7.1907,-11.9855 1.0831,0 2.4308,11.9855 -2.6448,0 -0.0356,-0.2297 z m -12.5253,-0.5447 c -0.1771,0.283 -0.4046,0.4971 -0.6777,0.64 -0.2703,0.1416 -0.5825,0.2134 -0.9345,0.2134 -0.266,0 -0.5092,-0.0462 -0.7254,-0.1359 l 0,-7e-4 c -0.2205,-0.091 -0.4118,-0.2283 -0.5732,-0.4103 -0.1572,-0.1771 -0.2767,-0.3833 -0.3549,-0.6131 l -7e-4,0 c -0.0768,-0.2247 -0.1159,-0.4764 -0.1159,-0.7474 0,-0.3222 0.032,-0.7183 0.0953,-1.182 0.0618,-0.453 0.1564,-0.98 0.2816,-1.5767 l 1.5553,-7.3713 0.0455,-0.2162 0.2191,0 1.9095,0 0.3314,0 -0.0668,0.325 -1.5917,7.6814 c -0.1095,0.5327 -0.1941,0.9964 -0.251,1.3897 -0.0541,0.3769 -0.0818,0.677 -0.0818,0.8975 0,0.1152 0.0171,0.2155 0.0491,0.2987 0.0306,0.0789 0.0789,0.1493 0.1408,0.2069 0.0668,0.0612 0.1429,0.1088 0.2254,0.1387 l 7e-4,7e-4 c 0.084,0.0306 0.1821,0.0469 0.2916,0.0469 l 0.4879,0 -0.2596,0.4147 z m -8.2845,-6.06 c -3.0446,0 -3.3326,6.3764 -0.9053,4.6661 0.2126,-0.1494 0.4132,-0.3798 0.5981,-0.6849 l 1.0326,-3.8951 -0.7254,-0.0861 z m 2.4813,3.6519 0.3421,3.1825 c -0.8605,0 -2.0404,0.2781 -2.5133,-0.635 -2.1513,1.7352 -5.4213,0.5533 -5.4213,-2.3405 0,-4.755 4.3588,-7.2555 8.5953,-5.4868 l -1.0028,5.2798 z m -8.707,-3.5253 -2.0752,0 c -0.5568,2.5041 -2.3298,5.7463 1.4778,4.164 l 0,2.339 c -6.5407,2.2651 -4.6084,-3.5637 -3.9491,-6.503 l -0.9473,0 0.4473,-2.0887 0.9423,0 0.3073,-1.6194 2.8006,-1.0276 -0.6152,2.647 2.2772,0 -0.4473,2.0887 -0.2184,0 z m -8.9822,6.7078 -2.2864,0 1.2552,-6.7078 -1.0724,0 0.4366,-2.0887 3.5396,0 -1.6485,8.7965 -0.2241,0 z m -0.8391,-11.1776 c 0,-2.8198 4.6603,-0.8861 2.5972,1.049 l -1.6485,0.3165 -0.8342,-0.7866 c -0.0754,-0.1756 -0.1145,-0.3691 -0.1145,-0.5789 z m -9.1287,8.9452 c 2.0958,1.5867 4.9775,-2.4379 3.2764,-4.1255 -0.5334,-0.5291 -2.1386,-0.5469 -2.5468,0.2589 l -0.7296,3.8666 z m -0.3883,2.1293 -0.5981,3.339 -2.4821,0 c 0.5562,-2.9741 2.2232,-8.7525 1.64,-11.7977 l 2.3704,-0.4282 0.1948,0.6351 c 0.2589,-0.1607 0.5178,-0.2894 0.7759,-0.3847 l 0,7e-4 c 4.8197,-1.7929 5.9811,4.3239 3.3042,7.3016 l -0.001,0 c -1.2439,1.3762 -3.4173,2.0397 -5.2037,1.3342 z m -4.2885,-5.9568 c -0.2901,-0.2539 -0.5661,-0.4438 -0.8256,-0.5682 l -7e-4,0.001 c -1.1742,-0.5597 -2.6215,0.0981 -0.2006,1.3654 4.2258,2.2118 0.1764,6.2933 -3.5779,5.2172 l -1.6045,-0.736 1.3228,-2.285 c 1.6599,1.5702 3.7216,0.8968 2.9265,0.0313 l -7e-4,0 c -0.7453,-0.8101 -2.0695,-0.8798 -2.6982,-1.8769 l 7e-4,0 c -1.6577,-2.5879 1.7218,-5.1219 6.1012,-3.2621 l -1.1812,2.3412 -0.2618,-0.2283 z m -12.4904,2.6057 c 0,2.0162 2.1357,1.7638 2.9343,0.505 l 7e-4,7e-4 c 2.8085,-4.4605 -2.935,-5.5273 -2.935,-0.5057 z m -2.546,0.0925 c 0,-7.5264 10.9351,-7.3337 8.3329,0.0555 l -7e-4,0 c -1.4444,4.1113 -8.3322,5.1297 -8.3322,-0.0555 z m -2.4244,3.3617 -2.3604,0 0.9601,-5.2563 -3.93,0 -0.9637,5.2563 -2.5858,0 2.167,-11.8276 2.5887,0 -0.7994,4.3567 3.93,0 0.8,-4.3567 2.588,0 -2.1698,11.8276 -0.2247,0 z" style="fill:#fefefe;fill-rule:evenodd" id="path4298" inkscape:connector-curvature="0"/>
</svg>